<?xml version="1.0" encoding="utf-8"?>
<!-- Generator: Adobe Illustrator 25.4.0, SVG Export Plug-In . SVG Version: 6.00 Build 0)  -->
<svg version="1.1" id="Layer_1" xmlns="http://www.w3.org/2000/svg" xmlns:xlink="http://www.w3.org/1999/xlink" x="0px" y="0px"
	 viewBox="0 0 24 24" style="enable-background:new 0 0 24 24;" xml:space="preserve">
<style type="text/css">
	.st0{clip-path:url(#SVGID_00000111164801662567797250000015399454057257403560_);}
	.st1{fill:#A2A2C8;}
</style>
<g>
	<defs>
		<rect id="SVGID_1_" width="24" height="24"/>
	</defs>
	<clipPath id="SVGID_00000028324030267120341070000000159115649812466349_">
		<use xlink:href="#SVGID_1_"  style="overflow:visible;"/>
	</clipPath>
	<g style="clip-path:url(#SVGID_00000028324030267120341070000000159115649812466349_);">
		<path class="st1" d="M17,0c-0.3,0-0.5,0.1-0.7,0.3C16.1,0.5,16,0.7,16,1c0,2.9-2.6,4-5,4H4C2.9,5,1.9,5.4,1.2,6.2
			C0.4,6.9,0,7.9,0,9v2c0,0.6,0.1,1.2,0.4,1.7c0.3,0.5,0.6,1,1.1,1.4l3.6,8c0.3,0.6,0.7,1.1,1.2,1.4C6.8,23.8,7.4,24,8,24
			c0.5,0,1-0.1,1.4-0.4c0.4-0.2,0.8-0.6,1.1-1c0.3-0.4,0.4-0.9,0.5-1.4c0-0.5,0-1-0.3-1.4L8.6,15H11c2.4,0,5,1.1,5,4
			c0,0.3,0.1,0.5,0.3,0.7S16.7,20,17,20s0.5-0.1,0.7-0.3S18,19.3,18,19V1c0-0.3-0.1-0.5-0.3-0.7C17.5,0.1,17.3,0,17,0L17,0z
			 M8.9,20.6C9,20.8,9,20.9,9,21.1c0,0.2-0.1,0.3-0.2,0.5c-0.1,0.1-0.2,0.2-0.4,0.3S8.2,22,8,22c-0.2,0-0.5-0.1-0.7-0.2
			c-0.2-0.1-0.4-0.3-0.5-0.5L4.1,15h2.3L8.9,20.6z M16,14.6c-1.4-1.1-3.2-1.7-5-1.6H4c-0.5,0-1-0.2-1.4-0.6C2.2,12,2,11.5,2,11V9
			c0-0.5,0.2-1,0.6-1.4C3,7.2,3.5,7,4,7h7c1.8,0.1,3.6-0.5,5-1.6V14.6z M23.9,15.5c-0.1,0.1-0.1,0.2-0.2,0.3
			c-0.1,0.1-0.2,0.2-0.3,0.2c-0.1,0-0.3,0.1-0.4,0c-0.1,0-0.3,0-0.4-0.1l-2-1c-0.2-0.1-0.4-0.3-0.5-0.6c-0.1-0.3-0.1-0.5,0.1-0.8
			c0.1-0.2,0.3-0.4,0.6-0.5c0.3-0.1,0.5-0.1,0.8,0.1l2,1c0.2,0.1,0.4,0.3,0.5,0.6C24,14.9,24,15.2,23.9,15.5L23.9,15.5z M20.1,6.5
			C20.1,6.3,20,6.2,20,6.1c0-0.1,0-0.3,0-0.4c0-0.1,0.1-0.2,0.2-0.3c0.1-0.1,0.2-0.2,0.3-0.2l2-1C22.8,4,23.1,4,23.3,4.1
			c0.3,0.1,0.5,0.3,0.6,0.5C24,4.8,24,5.1,24,5.3c-0.1,0.3-0.3,0.5-0.5,0.6l-2,1C21.3,7,21.2,7,21.1,7c-0.1,0-0.3,0-0.4,0
			c-0.1,0-0.2-0.1-0.3-0.2C20.2,6.7,20.2,6.6,20.1,6.5L20.1,6.5z M20,10c0-0.3,0.1-0.5,0.3-0.7C20.5,9.1,20.7,9,21,9h2
			c0.3,0,0.5,0.1,0.7,0.3C23.9,9.5,24,9.7,24,10c0,0.3-0.1,0.5-0.3,0.7S23.3,11,23,11h-2c-0.3,0-0.5-0.1-0.7-0.3S20,10.3,20,10z"/>
	</g>
</g>
</svg>
