<?xml version="1.0" encoding="utf-8"?>
<!-- Generator: Adobe Illustrator 25.4.0, SVG Export Plug-In . SVG Version: 6.00 Build 0)  -->
<svg version="1.1" id="Layer_1" xmlns="http://www.w3.org/2000/svg" xmlns:xlink="http://www.w3.org/1999/xlink" x="0px" y="0px"
	 viewBox="0 0 200 200" style="enable-background:new 0 0 200 200;" xml:space="preserve">
<style type="text/css">
	.st0{fill:#A2A2C8;}
</style>
<g transform="rotate(0 50 50)">
	<path class="st0" d="M99,48h1.9c2.8,0,5,2.3,5,5V67c0,2.8-2.3,5-5,5H99c-2.8,0-5-2.3-5-5V53C94,50.3,96.3,48,99,48z	">
<animate  accumulate="none" additive="replace" attributeName="opacity" begin="-0.9166666666666666s" calcMode="linear" dur="1s" fill="remove" keyTimes="0;1" repeatCount="indefinite" restart="always" values="1;0">
			</animate>
	</path>
</g>
<g transform="rotate(30 50 50)">
	<path class="st0" d="M117.3,16.3h1.9c2.8,0,5,2.3,5,5l0,13.9c0,2.8-2.3,5-5,5h-1.9c-2.8,0-5-2.3-5-5V21.3
		C112.3,18.6,114.6,16.3,117.3,16.3z	">
<animate  accumulate="none" additive="replace" attributeName="opacity" begin="-0.8333333333333334s" calcMode="linear" dur="1s" fill="remove" keyTimes="0;1" repeatCount="indefinite" restart="always" values="1;0">
			</animate>
	</path>
</g>
<g transform="rotate(60 50 50)">
	<path class="st0" d="M117.3-20.3l1.9,0c2.8,0,5,2.3,5,5v13.9c0,2.8-2.3,5-5,5l-1.9,0c-2.8,0-5-2.3-5-5l0-13.9
		C112.3-18,114.6-20.3,117.3-20.3z	">
<animate  accumulate="none" additive="replace" attributeName="opacity" begin="-0.75s" calcMode="linear" dur="1s" fill="remove" keyTimes="0;1" repeatCount="indefinite" restart="always" values="1;0">
			</animate>
	</path>
</g>
<g transform="rotate(90 50 50)">
	<path class="st0" d="M99-52h1.9c2.8,0,5,2.3,5,5V-33c0,2.8-2.3,5-5,5H99c-2.8,0-5-2.3-5-5V-47C94-49.7,96.3-52,99-52z	">
<animate  accumulate="none" additive="replace" attributeName="opacity" begin="-0.6666666666666666s" calcMode="linear" dur="1s" fill="remove" keyTimes="0;1" repeatCount="indefinite" restart="always" values="1;0">
			</animate>
	</path>
</g>
<g transform="rotate(120 50 50)">
	<path class="st0" d="M67.3-70.3h1.9c2.8,0,5,2.3,5,5v13.9c0,2.8-2.3,5-5,5h-1.9c-2.8,0-5-2.3-5-5l0-13.9
		C62.3-68,64.6-70.3,67.3-70.3z	">
<animate  accumulate="none" additive="replace" attributeName="opacity" begin="-0.5833333333333334s" calcMode="linear" dur="1s" fill="remove" keyTimes="0;1" repeatCount="indefinite" restart="always" values="1;0">
			</animate>
	</path>
</g>
<g transform="rotate(150 50 50)">
	<path class="st0" d="M30.7-70.3h1.9c2.8,0,5,2.3,5,5l0,13.9c0,2.8-2.3,5-5,5h-1.9c-2.8,0-5-2.3-5-5l0-13.9
		C25.7-68,28-70.3,30.7-70.3z	">
<animate  accumulate="none" additive="replace" attributeName="opacity" begin="-0.5s" calcMode="linear" dur="1s" fill="remove" keyTimes="0;1" repeatCount="indefinite" restart="always" values="1;0">
			</animate>
	</path>
</g>
<g transform="rotate(180 50 50)">
	<path class="st0" d="M-1-52H1c2.8,0,5,2.3,5,5V-33c0,2.8-2.3,5-5,5H-1c-2.8,0-5-2.3-5-5V-47C-6-49.7-3.7-52-1-52z	">
<animate  accumulate="none" additive="replace" attributeName="opacity" begin="-0.4166666666666667s" calcMode="linear" dur="1s" fill="remove" keyTimes="0;1" repeatCount="indefinite" restart="always" values="1;0">
			</animate>
	</path>
</g>
<g transform="rotate(210 50 50)">
	<path class="st0" d="M-19.3-20.3h1.9c2.8,0,5,2.3,5,5l0,13.9c0,2.8-2.3,5-5,5l-1.9,0c-2.8,0-5-2.3-5-5l0-13.9
		C-24.3-18-22-20.3-19.3-20.3z	">
<animate  accumulate="none" additive="replace" attributeName="opacity" begin="-0.3333333333333333s" calcMode="linear" dur="1s" fill="remove" keyTimes="0;1" repeatCount="indefinite" restart="always" values="1;0">
			</animate>
	</path>
</g>
<g transform="rotate(240 50 50)">
	<path class="st0" d="M-19.3,16.3l1.9,0c2.8,0,5,2.3,5,5l0,13.9c0,2.8-2.3,5-5,5h-1.9c-2.8,0-5-2.3-5-5l0-13.9
		C-24.3,18.6-22,16.3-19.3,16.3z	">
<animate  accumulate="none" additive="replace" attributeName="opacity" begin="-0.25s" calcMode="linear" dur="1s" fill="remove" keyTimes="0;1" repeatCount="indefinite" restart="always" values="1;0">
			</animate>
	</path>
</g>
<g transform="rotate(270 50 50)">
	<path class="st0" d="M-1,48H1c2.8,0,5,2.3,5,5V67c0,2.8-2.3,5-5,5H-1c-2.8,0-5-2.3-5-5V53C-6,50.3-3.7,48-1,48z	">
<animate  accumulate="none" additive="replace" attributeName="opacity" begin="-0.16666666666666666s" calcMode="linear" dur="1s" fill="remove" keyTimes="0;1" repeatCount="indefinite" restart="always" values="1;0">
			</animate>
	</path>
</g>
<g transform="rotate(300 50 50)">
	<path class="st0" d="M30.7,66.3h1.9c2.8,0,5,2.3,5,5l0,13.9c0,2.8-2.3,5-5,5h-1.9c-2.8,0-5-2.3-5-5l0-13.9
		C25.7,68.6,28,66.3,30.7,66.3z	">
<animate  accumulate="none" additive="replace" attributeName="opacity" begin="-0.08333333333333333s" calcMode="linear" dur="1s" fill="remove" keyTimes="0;1" repeatCount="indefinite" restart="always" values="1;0">
			</animate>
	</path>
</g>
<g transform="rotate(330 50 50)">
	<path class="st0" d="M67.3,66.3h1.9c2.8,0,5,2.3,5,5l0,13.9c0,2.8-2.3,5-5,5h-1.9c-2.8,0-5-2.3-5-5l0-13.9
		C62.3,68.6,64.6,66.3,67.3,66.3z	">
<animate  accumulate="none" additive="replace" attributeName="opacity" begin="0s" calcMode="linear" dur="1s" fill="remove" keyTimes="0;1" repeatCount="indefinite" restart="always" values="1;0">
			</animate>
	</path>
</g>
</svg>
