<?xml version="1.0" encoding="utf-8"?>
<!-- Generator: Adobe Illustrator 25.4.0, SVG Export Plug-In . SVG Version: 6.00 Build 0)  -->
<svg version="1.1" id="Layer_1" xmlns="http://www.w3.org/2000/svg" xmlns:xlink="http://www.w3.org/1999/xlink" x="0px" y="0px"
	 viewBox="0 0 28 24" style="enable-background:new 0 0 28 24;" xml:space="preserve">
<style type="text/css">
	.st0{fill:url(#SVGID_1_);}
	.st1{fill:url(#SVGID_00000170995478518775859800000014406412700857228172_);}
</style>
<linearGradient id="SVGID_1_" gradientUnits="userSpaceOnUse" x1="4.793" y1="22.3619" x2="15.3981" y2="3.9734" gradientTransform="matrix(1 0 0 -1 0 25)">
	<stop  offset="0" style="stop-color:#A2A2C8"/>
	<stop  offset="0.3627" style="stop-color:#A196C1"/>
	<stop  offset="1" style="stop-color:#9F78B0"/>
</linearGradient>
<path class="st0" d="M3.2,9.2C1.8,6.9,2.6,3.9,4.8,2.6c2.2-1.3,5.2-0.5,6.5,1.9l5.9,10.3c1.3,2.3,0.6,5.3-1.6,6.6
	c-2.2,1.3-5.2,0.5-6.5-1.9L3.2,9.2z"/>
<linearGradient id="SVGID_00000175322641979835296490000008047365254433866903_" gradientUnits="userSpaceOnUse" x1="22.5552" y1="23.0735" x2="22.5322" y2="13.7137" gradientTransform="matrix(1 0 0 -1 0 25)">
	<stop  offset="0" style="stop-color:#A2A2C8"/>
	<stop  offset="0.3627" style="stop-color:#A196C1"/>
	<stop  offset="1" style="stop-color:#9F78B0"/>
</linearGradient>
<path style="fill:url(#SVGID_00000175322641979835296490000008047365254433866903_);" d="M27.2,6.7c0,2.6-2.1,4.8-4.7,4.8
	s-4.7-2.1-4.7-4.8c0-2.6,2.1-4.8,4.7-4.8S27.2,4.1,27.2,6.7z"/>
</svg>
