<?xml version="1.0" encoding="utf-8"?>
<!-- Generator: Adobe Illustrator 25.4.0, SVG Export Plug-In . SVG Version: 6.00 Build 0)  -->
<svg version="1.1" id="Layer_1" xmlns="http://www.w3.org/2000/svg" xmlns:xlink="http://www.w3.org/1999/xlink" x="0px" y="0px"
	 viewBox="0 0 24 24" style="enable-background:new 0 0 24 24;" xml:space="preserve">
<style type="text/css">
	.st0{fill:none;stroke:#A2A2C8;stroke-width:2;}
	.st1{fill:#A2A2C8;stroke:#A2A2C8;stroke-miterlimit:10;}
</style>
<path class="st0" d="M5.8,6.9v-1c0-2,0-3,0.6-3.6c0.6-0.6,1.7-0.4,3.7-0.2L17,3c2.4,0.3,3.6,0.5,4.3,1.3C22,5,22,6.2,22,8.6v6.7
	c0,2.4,0,3.6-0.7,4.4c-0.7,0.8-1.9,1-4.3,1.3l-6.9,0.9c-2,0.3-3,0.4-3.7-0.2c-0.6-0.6-0.6-1.6-0.6-3.6v-0.8"/>
<path class="st1" d="M15.3,12l0.8-0.6l0.4,0.6l-0.4,0.6L15.3,12z M2,13c-0.5,0-1-0.4-1-1s0.4-1,1-1V13z M12,5.7l4.1,5.7l-1.5,1.1
	l-4.1-5.7L12,5.7z M16.1,12.6L12,18.3l-1.5-1.1l4.1-5.7L16.1,12.6z M15.3,13H2V11h13.4V13z"/>
</svg>
