<?xml version="1.0" encoding="utf-8"?>
<!-- Generator: Adobe Illustrator 25.4.0, SVG Export Plug-In . SVG Version: 6.00 Build 0)  -->
<svg version="1.1" id="Layer_1" xmlns="http://www.w3.org/2000/svg" xmlns:xlink="http://www.w3.org/1999/xlink" x="0px" y="0px"
	 viewBox="0 0 24 24" style="enable-background:new 0 0 24 24;" xml:space="preserve">
<style type="text/css">
	.st0{fill:none;stroke:#A2A2C8;stroke-width:2;stroke-linecap:round;stroke-linejoin:round;}
</style>
<path class="st0" d="M18.1,8.1V5.6c0-0.7-0.3-1.3-0.7-1.8C16.9,3.3,16.3,3,15.7,3H3.4C2.8,3,2.2,3.3,1.7,3.8C1.3,4.2,1,4.9,1,5.6
	v7.7c0,0.7,0.3,1.3,0.7,1.8s1.1,0.8,1.7,0.8h2.4 M8.3,21h12.2c0.6,0,1.3-0.3,1.7-0.8c0.5-0.5,0.7-1.1,0.7-1.8v-7.7
	c0-0.7-0.3-1.3-0.7-1.8c-0.5-0.5-1.1-0.8-1.7-0.8H8.3c-0.6,0-1.3,0.3-1.7,0.8C6.1,9.4,5.9,10,5.9,10.7v7.7c0,0.7,0.3,1.3,0.7,1.8
	C7.1,20.7,7.7,21,8.3,21z M16.9,14.6c0,0.7-0.3,1.3-0.7,1.8c-0.5,0.5-1.1,0.8-1.7,0.8c-0.6,0-1.3-0.3-1.7-0.8
	c-0.5-0.5-0.7-1.1-0.7-1.8s0.3-1.3,0.7-1.8c0.5-0.5,1.1-0.8,1.7-0.8c0.6,0,1.3,0.3,1.7,0.8C16.6,13.2,16.9,13.9,16.9,14.6z"/>
</svg>
