<?xml version="1.0" encoding="utf-8"?>
<!-- Generator: Adobe Illustrator 25.4.0, SVG Export Plug-In . SVG Version: 6.00 Build 0)  -->
<svg version="1.1" id="Layer_1" xmlns="http://www.w3.org/2000/svg" xmlns:xlink="http://www.w3.org/1999/xlink" x="0px" y="0px"
	 viewBox="0 0 24 24" style="enable-background:new 0 0 24 24;" xml:space="preserve">
<style type="text/css">
	.st0{fill:#A2A2C8;}
</style>
<path class="st0" d="M12,18.5c-1.7,0-3.4-0.7-4.6-1.9c-1.2-1.2-1.9-2.9-1.9-4.6s0.7-3.4,1.9-4.6c1.2-1.2,2.9-1.9,4.6-1.9
	s3.4,0.7,4.6,1.9c1.2,1.2,1.9,2.9,1.9,4.6s-0.7,3.4-1.9,4.6S13.7,18.5,12,18.5z M12,16.4c1.2,0,2.3-0.5,3.1-1.3
	c0.8-0.8,1.3-1.9,1.3-3.1s-0.5-2.3-1.3-3.1c-0.8-0.8-1.9-1.3-3.1-1.3S9.7,8.1,8.9,8.9S7.6,10.8,7.6,12s0.5,2.3,1.3,3.1
	C9.7,15.9,10.8,16.4,12,16.4z M10.9,1.1C10.9,0.5,11.4,0,12,0s1.1,0.5,1.1,1.1v1.1c0,0.6-0.5,1.1-1.1,1.1s-1.1-0.5-1.1-1.1V1.1z
	 M10.9,21.8c0-0.6,0.5-1.1,1.1-1.1s1.1,0.5,1.1,1.1v1.1c0,0.6-0.5,1.1-1.1,1.1s-1.1-0.5-1.1-1.1V21.8z M3.5,5.1
	c-0.4-0.4-0.4-1.1,0-1.5s1.1-0.4,1.5,0l0.8,0.8c0.4,0.4,0.4,1.1,0,1.5s-1.1,0.4-1.5,0L3.5,5.1z M18.2,19.7c-0.4-0.4-0.4-1.1,0-1.5
	c0.4-0.4,1.1-0.4,1.5,0l0.8,0.8c0.4,0.4,0.4,1.1,0,1.5s-1.1,0.4-1.5,0L18.2,19.7z M18.9,3.5c0.4-0.4,1.1-0.4,1.5,0
	c0.4,0.4,0.4,1.1,0,1.5l-0.8,0.8c-0.4,0.4-1.1,0.4-1.5,0c-0.4-0.4-0.4-1.1,0-1.5L18.9,3.5z M4.3,18.2c0.4-0.4,1.1-0.4,1.5,0
	c0.4,0.4,0.4,1.1,0,1.5l-0.8,0.8c-0.4,0.4-1.1,0.4-1.5,0s-0.4-1.1,0-1.5L4.3,18.2z M22.9,10.9c0.6,0,1.1,0.5,1.1,1.1
	s-0.5,1.1-1.1,1.1h-1.1c-0.6,0-1.1-0.5-1.1-1.1s0.5-1.1,1.1-1.1H22.9z M2.2,10.9c0.6,0,1.1,0.5,1.1,1.1s-0.5,1.1-1.1,1.1H1.1
	C0.5,13.1,0,12.6,0,12s0.5-1.1,1.1-1.1H2.2z"/>
</svg>
