<?xml version="1.0" encoding="utf-8"?>
<!-- Generator: Adobe Illustrator 25.4.0, SVG Export Plug-In . SVG Version: 6.00 Build 0)  -->
<svg version="1.1" id="Layer_1" xmlns="http://www.w3.org/2000/svg" xmlns:xlink="http://www.w3.org/1999/xlink" x="0px" y="0px"
	 viewBox="0 0 24 24" style="enable-background:new 0 0 24 24;" xml:space="preserve">
<style type="text/css">
	.st0{clip-path:url(#SVGID_00000107547764736948633740000018297622065490410421_);}
	.st1{fill:none;stroke:#A2A2C8;stroke-miterlimit:10;}
</style>
<g>
	<defs>
		<rect id="SVGID_1_" width="24" height="24"/>
	</defs>
	<clipPath id="SVGID_00000137825171684775171240000008862331686661576344_">
		<use xlink:href="#SVGID_1_"  style="overflow:visible;"/>
	</clipPath>
	<g style="clip-path:url(#SVGID_00000137825171684775171240000008862331686661576344_);">
		<path class="st1" d="M4.5,11H2.1C1.5,11,1,10.5,1,9.9V2.1C1,1.5,1.5,1,2.1,1h19.8C22.5,1,23,1.5,23,2.1v7.8c0,0.6-0.5,1.1-1.1,1.1
			h-2.1"/>
		<path class="st1" d="M19.4,6H4.6C4.3,6,4,6.2,4,6.5v15.9C4,22.8,4.3,23,4.6,23h14.9c0.3,0,0.6-0.2,0.6-0.5V6.5
			C20,6.2,19.7,6,19.4,6z"/>
		<path class="st1" d="M15,16.4c0,0.4-0.1,0.8-0.3,1.2c-0.2,0.4-0.5,0.7-0.9,0.9c-0.4,0.2-0.9,0.4-1.4,0.4v1h-0.7v-1
			c-0.8-0.1-1.4-0.3-1.9-0.8c-0.5-0.4-0.7-1-0.7-1.8h1.8c0,0.6,0.3,1,0.9,1.1v-2.4c-0.6-0.2-1-0.3-1.4-0.5c-0.3-0.2-0.6-0.4-0.9-0.7
			C9.1,13.6,9,13.2,9,12.6c0-0.7,0.2-1.3,0.7-1.8c0.5-0.5,1.1-0.7,1.9-0.8V9h0.7v1c0.7,0.1,1.3,0.3,1.8,0.7c0.5,0.4,0.7,1,0.8,1.7
			h-1.8c0-0.2-0.1-0.5-0.2-0.6c-0.1-0.2-0.3-0.3-0.5-0.4v2.4c0.6,0.2,1,0.3,1.4,0.5c0.3,0.1,0.6,0.4,0.9,0.7
			C14.9,15.3,15,15.8,15,16.4z M10.7,12.5c0,0.3,0.1,0.5,0.2,0.7c0.2,0.2,0.4,0.3,0.7,0.4v-2.2c-0.3,0-0.5,0.2-0.7,0.3
			C10.8,12,10.7,12.2,10.7,12.5z M12.4,17.6c0.3-0.1,0.5-0.2,0.7-0.4c0.2-0.2,0.3-0.4,0.3-0.7c0-0.3-0.1-0.5-0.2-0.7
			c-0.2-0.2-0.4-0.3-0.7-0.4V17.6z"/>
	</g>
</g>
</svg>
